# xmcd
#
# Track frame offsets:
#  150
#  12816
#  34525
#  44768
#  55801
#  68647
#  80980
#  91746
#  101473
#  115403
#  128094
#  137741
#  152449
#  163778
#  174329
#  187122
#  197713
#  212609
#  223013
#  233381
#  244840
#  256996
#  268216
#  281280
#  292763
#  304183
#
# Disc length: 4203 seconds
#
# Revision: 0
# Processed by: cddbd v1.5.1PL2 Copyright (c) Steve Scherf et al.
# Submitted via: Collectorz.com_Music_Collector 6.9
#
DISCID=6c10691a
DTITLE=Various Artist - DDoo Wop Coast To Coast - And Everything In Between - Volume 02
DYEAR=2002
DGENRE=Doo-Wop
TTITLE0=DuDroppers, The - Little Girl, Little Girl
TTITLE1=Collegians, The - He Will Break Your Heart
TTITLE2=Earls, The - My Marie
TTITLE3=Companions, The - Oh What A Feeling
TTITLE4=Heartbreaker, The - I'm Seeking Revenge
TTITLE5=Five Diamonds, The - My Love
TTITLE6=Clouds, The - Rock and Roll Boogie
TTITLE7=Imperials, The - Why Did You Leave Me
TTITLE8=Esquires, The - Mission Bells
TTITLE9=McGriff, Edna and The Tomcats - Sh Boom
TTITLE10=Ward, Lee and Group - You Are My Sunshine
TTITLE11=Arrows, The - Pretty Little Thing
TTITLE12=Pebbles, The - Let Me Hear It Again
TTITLE13=Premiers, The - Baby
TTITLE14=Five Diamonds, The - The Night
TTITLE15=Day Brothers, The - Cleopatra Brown
TTITLE16=Lifesavers, The - Didn't You Know
TTITLE17=DuDroppers, The - I Found Out
TTITLE18=Captans, The - Feel Like Balling Some More
TTITLE19=Clouds, The - I Do
TTITLE20=Sky Boys, The - Mad Baby Mad
TTITLE21=Turner, Joe and Group - Lipstick, Powder and Paint
TTITLE22=Allen, Tony and THe Chimes - Jonelle
TTITLE23=Chevrons, The - On Saturday Night
TTITLE24=Magics, The - Chapel Bells
TTITLE25=Camelots, The - Daddy's Going Away Again (Demo Version)
EXTD=
EXTT0=
EXTT1=
EXTT2=
EXTT3=
EXTT4=
EXTT5=
EXTT6=
EXTT7=
EXTT8=
EXTT9=
EXTT10=
EXTT11=
EXTT12=
EXTT13=
EXTT14=
EXTT15=
EXTT16=
EXTT17=
EXTT18=
EXTT19=
EXTT20=
EXTT21=
EXTT22=
EXTT23=
EXTT24=
EXTT25=
PLAYORDER=
